<?xml version="1.0" encoding="UTF-8"?>
<!DOCTYPE svg PUBLIC "-//W3C//DTD SVG 1.1//EN" "http://www.w3.org/Graphics/SVG/1.1/DTD/svg11.dtd">
<!-- Creator: CorelDRAW -->
<svg xmlns="http://www.w3.org/2000/svg" xml:space="preserve" width="348.197mm" height="348.197mm" version="1.1" style="shape-rendering:geometricPrecision; text-rendering:geometricPrecision; image-rendering:optimizeQuality; fill-rule:evenodd; clip-rule:evenodd"
viewBox="0 0 17571.82 17571.82"
 xmlns:xlink="http://www.w3.org/1999/xlink"
 xmlns:xodm="http://www.corel.com/coreldraw/odm/2003">
 <defs>
  <style type="text/css">
   <![CDATA[
    .str0 {stroke:#C4B097;stroke-width:106.82;stroke-miterlimit:10}
    .fil3 {fill:none}
    .fil1 {fill:none;fill-rule:nonzero}
    .fil2 {fill:#F2EBDB;fill-rule:nonzero}
    .fil0 {fill:url(#id0)}
   ]]>
  </style>
  <linearGradient id="id0" gradientUnits="userSpaceOnUse" x1="1390.78" y1="8785.91" x2="16181.03" y2="8785.91">
   <stop offset="0" style="stop-opacity:1; stop-color:#B29569"/>
   <stop offset="0.588235" style="stop-opacity:1; stop-color:#876842"/>
   <stop offset="1" style="stop-opacity:1; stop-color:#5B3A1A"/>
  </linearGradient>
 </defs>
 <g id="Layer_x0020_1">
  <metadata id="CorelCorpID_0Corel-Layer"/>
  <path class="fil0" d="M1390.79 8785.91c0,4084.23 3310.9,7395.12 7395.12,7395.12 4084.21,0 7395.12,-3310.89 7395.12,-7395.12 0,-4084.21 -3310.91,-7395.12 -7395.12,-7395.12 -4084.22,0 -7395.12,3310.91 -7395.12,7395.12z"/>
  <path class="fil1 str0" d="M8785.91 1902.26c3801.73,0 6883.64,3081.91 6883.64,6883.64 0,3801.75 -3081.9,6883.66 -6883.64,6883.66 -3801.74,0 -6883.64,-3081.9 -6883.64,-6883.66 0,-3801.73 3081.9,-6883.64 6883.64,-6883.64z"/>
  <path class="fil2" d="M5448.34 10201.37l0 126.99 41.05 0c24.21,0 41.94,-2.37 53.23,-7.1 11.27,-4.72 20.33,-12.11 27.17,-22.18 6.86,-10.04 10.27,-20.94 10.27,-32.63 0,-14.71 -4.82,-27.56 -14.44,-38.51 -9.61,-10.95 -22.84,-18.46 -39.67,-22.5 -11.27,-2.73 -30.9,-4.06 -58.89,-4.06l-18.73 0zm0 -139.38l0 106.05 18.96 0c23,0 39.93,-2.14 50.77,-6.43 10.81,-4.27 19.39,-11.02 25.71,-20.26 6.32,-9.23 9.49,-19.48 9.49,-30.75 0,-15.13 -5.31,-27.04 -15.92,-35.68 -10.59,-8.63 -27.49,-12.94 -50.65,-12.94l-38.36 0zm-32.42 -32.42l65.3 0c26.26,0 46.45,3.09 60.56,9.35 14.1,6.23 25.25,15.79 33.43,28.69 8.18,12.93 12.27,27.26 12.27,43 0,14.73 -3.58,28.11 -10.75,40.2 -7.16,12.09 -17.69,21.9 -31.6,29.39 17.22,5.86 30.46,12.71 39.74,20.6 9.28,7.89 16.51,17.41 21.67,28.59 5.16,11.18 7.74,23.32 7.74,36.38 0,26.56 -9.72,49.05 -29.14,67.42 -19.46,18.41 -45.54,27.59 -78.24,27.59l-90.97 0 0 -331.2z"/>
  <polygon class="fil2" points="5745.91,10029.57 5783.99,10029.57 5868.75,10166.17 5952.16,10029.57 5990.43,10029.57 5885.52,10202.48 5885.52,10360.77 5852.87,10360.77 5852.87,10202.48 "/>
  <path class="fil2" d="M6588.58 10053.44c-24.5,0 -47.75,6.37 -69.7,19.14 -21.93,12.78 -39.08,30 -51.41,51.63 -12.32,21.61 -18.48,45.73 -18.48,72.33 0,39.34 13.64,72.58 40.93,99.71 27.28,27.09 60.17,40.66 98.66,40.66 25.71,0 49.51,-6.23 71.37,-18.69 21.88,-12.46 38.95,-29.52 51.2,-51.15 12.25,-21.65 18.37,-45.67 18.37,-72.14 0,-26.28 -6.13,-50.04 -18.37,-71.32 -12.25,-21.24 -29.5,-38.26 -51.75,-51.04 -22.26,-12.76 -45.86,-19.14 -70.82,-19.14zm-1.46 -32.21c50.17,0 92.15,16.75 125.94,50.22 33.81,33.48 50.71,74.68 50.71,123.6 0,48.5 -16.86,89.62 -50.58,123.39 -33.74,33.77 -74.84,50.65 -123.36,50.65 -49.12,0 -90.58,-16.79 -124.39,-50.44 -33.78,-33.61 -50.69,-74.29 -50.69,-122.02 0,-31.81 7.69,-61.32 23.09,-88.5 15.4,-27.15 36.39,-48.44 62.97,-63.82 26.6,-15.4 55.37,-23.09 86.31,-23.09z"/>
  <path class="fil2" d="M6957.3 10061.99l0 112.57 57.06 0.46c22.09,0 38.45,-2.1 49.05,-6.3 10.61,-4.2 18.87,-10.91 24.82,-20.15 5.92,-9.22 8.9,-19.55 8.9,-30.96 0,-11.11 -3.01,-21.2 -9.01,-30.28 -6.04,-9.09 -13.92,-15.56 -23.7,-19.47 -9.78,-3.92 -26.01,-5.86 -48.71,-5.86l-58.41 0zm-33.1 -32.42l65.98 0c36.76,0 61.69,1.51 74.74,4.52 19.67,4.51 35.66,14.16 47.96,28.97 12.32,14.8 18.46,33 18.46,54.67 0,18.03 -4.24,33.88 -12.71,47.57 -8.49,13.66 -20.59,24 -36.36,30.98 -15.77,7 -37.55,10.58 -65.3,10.72l119.1 153.78 -40.94 0 -119.12 -153.78 -18.71 0 0 153.78 -33.1 0 0 -331.21z"/>
  <polygon class="fil2" points="7294.74,10360.78 7294.74,10029.58 7301.94,10029.58 7522.38,10283.45 7522.38,10029.58 7555.03,10029.58 7555.03,10360.78 7547.59,10360.78 7328.95,10109.97 7328.95,10360.78 "/>
  <polygon class="fil2" points="7728.09,10029.57 7917.9,10029.57 7917.9,10061.98 7761.18,10061.98 7761.18,10165.78 7916.55,10165.78 7916.55,10198.22 7761.18,10198.22 7761.18,10328.35 7916.55,10328.35 7916.55,10360.77 7728.09,10360.77 "/>
  <polygon class="fil2" points="8067.32,10029.57 8100.42,10029.57 8100.42,10328.82 8227.87,10328.82 8227.87,10360.77 8067.32,10360.77 "/>
  <polygon class="fil2" points="8346.43,10029.57 8384.51,10029.57 8469.26,10166.17 8552.68,10029.57 8590.96,10029.57 8486.02,10202.48 8486.02,10360.77 8453.39,10360.77 8453.39,10202.48 "/>
  <path class="fil2" d="M8703.45 10299.08l28.15 -16.88c19.81,36.48 42.71,54.71 68.66,54.71 11.11,0 21.56,-2.58 31.32,-7.78 9.75,-5.16 17.18,-12.11 22.29,-20.81 5.09,-8.71 7.64,-17.93 7.64,-27.7 0,-11.09 -3.75,-21.97 -11.25,-32.64 -10.34,-14.71 -29.26,-32.42 -56.74,-53.14 -27.63,-20.87 -44.81,-35.95 -51.56,-45.26 -11.71,-15.61 -17.57,-32.5 -17.57,-50.67 0,-14.42 3.45,-27.54 10.36,-39.41 6.91,-11.84 16.63,-21.19 29.16,-28.02 12.53,-6.84 26.15,-10.23 40.86,-10.23 15.61,0 30.21,3.85 43.81,11.57 13.58,7.74 27.95,21.97 43.1,42.67l-27.03 20.51c-12.44,-16.52 -23.07,-27.4 -31.85,-32.65 -8.78,-5.25 -18.35,-7.9 -28.71,-7.9 -13.35,0 -24.27,4.06 -32.76,12.18 -8.47,8.1 -12.71,18.1 -12.71,29.94 0,7.21 1.49,14.19 4.5,20.94 2.99,6.75 8.48,14.1 16.44,22.07 4.34,4.2 18.6,15.23 42.78,33.1 28.66,21.17 48.34,40 59,56.51 10.64,16.54 15.97,33.1 15.97,49.77 0,24 -9.11,44.88 -27.34,62.58 -18.23,17.73 -40.41,26.58 -66.53,26.58 -20.12,0 -38.36,-5.37 -54.72,-16.11 -16.36,-10.72 -31.46,-28.7 -45.26,-53.93z"/>
  <path class="fil2" d="M9587.95 10091.04l-26.12 20.03c-14.4,-18.76 -31.71,-32.99 -51.89,-42.65 -20.21,-9.69 -42.39,-14.53 -66.55,-14.53 -26.42,0 -50.9,6.34 -73.4,19.02 -22.52,12.69 -39.95,29.71 -52.34,51.13 -12.39,21.38 -18.59,45.43 -18.59,72.16 0,40.4 13.87,74.08 41.55,101.11 27.71,27.02 62.63,40.52 104.81,40.52 46.4,0 85.19,-18.14 116.41,-54.48l26.12 19.81c-16.52,21.03 -37.12,37.26 -61.81,48.74 -24.67,11.49 -52.27,17.22 -82.75,17.22 -57.93,0 -103.63,-19.28 -137.12,-57.86 -28.07,-32.56 -42.1,-71.9 -42.1,-118 0,-48.46 17,-89.26 51.01,-122.36 34,-33.12 76.59,-49.65 127.75,-49.65 30.95,0 58.86,6.12 83.78,18.34 24.92,12.25 45.33,29.39 61.24,51.46z"/>
  <path class="fil2" d="M9905.79 10053.44c-24.5,0 -47.75,6.37 -69.7,19.14 -21.94,12.78 -39.08,30 -51.42,51.63 -12.32,21.61 -18.48,45.73 -18.48,72.33 0,39.34 13.64,72.58 40.93,99.71 27.28,27.09 60.17,40.66 98.66,40.66 25.71,0 49.49,-6.23 71.39,-18.69 21.86,-12.46 38.94,-29.52 51.19,-51.15 12.25,-21.65 18.39,-45.67 18.39,-72.14 0,-26.28 -6.14,-50.04 -18.39,-71.32 -12.25,-21.24 -29.5,-38.26 -51.74,-51.04 -22.26,-12.76 -45.88,-19.14 -70.84,-19.14zm-1.46 -32.21c50.17,0 92.14,16.75 125.94,50.22 33.81,33.48 50.7,74.68 50.7,123.6 0,48.5 -16.86,89.62 -50.58,123.39 -33.74,33.77 -74.84,50.65 -123.38,50.65 -49.1,0 -90.58,-16.79 -124.37,-50.44 -33.77,-33.61 -50.68,-74.29 -50.68,-122.02 0,-31.81 7.69,-61.32 23.09,-88.5 15.4,-27.15 36.39,-48.44 62.97,-63.82 26.6,-15.4 55.37,-23.09 86.31,-23.09z"/>
  <path class="fil2" d="M10240.74 10029.57l33.1 0 0 199.95c0,23.71 0.46,38.5 1.37,44.36 1.62,13.05 5.45,23.98 11.47,32.76 6,8.8 15.24,16.13 27.7,22.06 12.44,5.94 25,8.9 37.6,8.9 10.95,0 21.45,-2.33 31.53,-6.98 10.04,-4.66 18.46,-11.11 25.22,-19.37 6.73,-8.26 11.7,-18.23 14.85,-29.95 2.24,-8.4 3.38,-25.67 3.38,-51.79l0 -199.95 33.07 0 0 199.95c0,29.59 -2.88,53.48 -8.67,71.71 -5.77,18.25 -17.32,34.12 -34.66,47.64 -17.34,13.49 -38.33,20.24 -62.94,20.24 -26.72,0 -49.62,-6.37 -68.68,-19.14 -19.05,-12.75 -31.83,-29.63 -38.26,-50.67 -4.06,-12.89 -6.09,-36.16 -6.09,-69.79l0 -199.95z"/>
  <polygon class="fil2" points="10600.92,10061.99 10600.92,10029.57 10782.4,10029.57 10782.4,10061.99 10708.56,10061.99 10708.56,10360.78 10674.77,10360.78 10674.77,10061.99 "/>
  <path class="fil2" d="M10923.48 10029.57l33.1 0 0 199.95c0,23.71 0.46,38.5 1.37,44.36 1.64,13.05 5.47,23.98 11.47,32.76 6,8.8 15.24,16.13 27.7,22.06 12.46,5.94 25,8.9 37.6,8.9 10.95,0 21.47,-2.33 31.53,-6.98 10.04,-4.66 18.47,-11.11 25.23,-19.37 6.75,-8.26 11.7,-18.23 14.87,-29.95 2.23,-8.4 3.37,-25.67 3.37,-51.79l0 -199.95 33.1 0 0 199.95c0,29.59 -2.89,53.48 -8.67,71.71 -5.77,18.25 -17.34,34.12 -34.68,47.64 -17.32,13.49 -38.31,20.24 -62.91,20.24 -26.73,0 -49.62,-6.37 -68.69,-19.14 -19.07,-12.75 -31.83,-29.63 -38.27,-50.67 -4.06,-12.89 -6.09,-36.16 -6.09,-69.79l0 -199.95z"/>
  <path class="fil2" d="M11351.43 10061.99l0 112.57 57.06 0.46c22.09,0 38.43,-2.1 49.05,-6.3 10.61,-4.2 18.89,-10.91 24.81,-20.15 5.93,-9.22 8.9,-19.55 8.9,-30.96 0,-11.11 -2.99,-21.2 -9.01,-30.28 -6.02,-9.09 -13.92,-15.56 -23.68,-19.47 -9.77,-3.92 -26.02,-5.86 -48.72,-5.86l-58.41 0zm-33.1 -32.42l65.98 0c36.76,0 61.69,1.51 74.75,4.52 19.66,4.51 35.64,14.16 47.94,28.97 12.32,14.8 18.47,33 18.47,54.67 0,18.03 -4.24,33.88 -12.7,47.57 -8.49,13.66 -20.63,24 -36.37,30.98 -15.77,7 -37.55,10.58 -65.3,10.72l119.1 153.78 -40.95 0 -119.12 -153.78 -18.71 0 0 153.78 -33.1 0 0 -331.21z"/>
  <polygon class="fil2" points="11688.87,10029.57 11878.68,10029.57 11878.68,10061.98 11721.96,10061.98 11721.96,10165.78 11877.33,10165.78 11877.33,10198.22 11721.96,10198.22 11721.96,10328.35 11877.33,10328.35 11877.33,10360.77 11688.87,10360.77 "/>
  <path class="fil2" d="M6619.29 6357.48l9.49 9.49c-233.93,86.08 -428.3,221.56 -583.13,406.44 -154.89,184.9 -290.81,447.8 -407.71,788.83l-160.65 521.65c-180.99,638.08 -379.37,1083.51 -595.21,1336.16 66.37,-44.22 166.68,-146.96 301.05,-308.15 134.29,-161.19 282.07,-353.94 443.26,-578.39l75.86 -104.29 289.19 -417.2 165.92 -237.05 251.27 -322.38c322.36,-376.07 640,-651.06 952.9,-824.9 312.89,-173.79 636.81,-260.74 971.87,-260.74l156.45 0c22.07,10.08 33.18,25.1 33.18,45.18l-28.45 42.96c-15.85,10.82 -36.37,16.15 -61.62,16.15l-75.85 0c-41.13,-12.14 -71.13,-20.3 -90.09,-24.37l-118.53 -18.28c-44.28,0 -124.89,44.43 -241.78,133.33 -116.95,79.4 -229.18,185.77 -336.58,319.12 -85.35,101.64 -172.31,233.35 -260.74,395.26 -88.52,161.93 -184.9,358.84 -289.19,590.54l-113.8 242.88c-199.11,425.49 -395.1,755.65 -587.85,990.61 -104.29,123.86 -203.86,219.87 -298.66,288.16 -94.83,68.29 -202.31,124.58 -322.38,169.04 395.03,0 731.63,-89.26 1009.79,-267.86 278.08,-178.51 538.83,-481.18 782.24,-907.86l37.92 23.71c-221.27,398.22 -474.89,695.35 -760.9,891.27 -286.08,196 -615.57,293.93 -988.45,293.93l-85.35 0 -47.41 -4.74 -127.98 18.96 -85.35 9.47c-25.34,0 -45.86,-5.25 -61.64,-15.63 -9.49,-17.32 -14.22,-29.55 -14.22,-36.5l9.49 -20.74 37.92 -12.46 180.17 22.75 37.92 5.7c113.78,-50.81 216.45,-122.22 308.16,-214.3 82.14,-79.35 165.92,-188.89 251.27,-328.6 72.65,-107.94 173.77,-309.56 303.4,-604.82l256.01 -562.02c41.03,-92.01 82.16,-174.59 123.27,-247.62 28.45,-53.94 74.22,-130.16 137.49,-228.61 94.8,-146.08 191.17,-274.67 289.18,-385.79 199.13,-228.59 429.8,-406.37 692.16,-533.41l-9.47 -23.77c-347.71,69.77 -671.65,228.22 -971.86,475.48 -300.32,247.26 -647.94,656.23 -1042.99,1226.77 -322.38,462.83 -588.69,817.8 -798.84,1065.06 -210.23,247.25 -370.61,396.3 -481.19,446.96l-23.7 -28.45c47.41,-59.62 97.92,-146 151.7,-259.1l85.35 -207.26 99.54 -287.41 183.79 -635.58 104.36 -364.73 85.49 -237.04c53.78,-139.04 106.74,-252.82 158.96,-341.34 52.16,-88.47 117.86,-181.71 196.97,-279.72 142.3,-180.15 324.23,-346.07 545.71,-497.79 -300.3,82.09 -570.53,241.41 -810.67,478.08 -240.23,236.76 -562.61,684.85 -967.15,1344.41 -82.21,138.88 -164.28,271.41 -246.52,397.63 -82.14,126.22 -148.53,225.63 -199.11,298.23 -123.27,173.56 -227.56,301.33 -312.9,383.4 -176.96,157.79 -358.68,236.68 -545.2,236.68 -104.29,0 -184.06,-21.92 -239.4,-65.57 -55.26,-43.69 -82.96,-96.88 -82.96,-159.41 0,-53.02 14.51,-96.79 43.33,-131.17 28.97,-34.38 67.56,-51.56 115.7,-51.56 35.33,0 65.86,12.68 91.47,37.92 25.8,25.33 40.24,56.9 43.42,94.82 0,50.58 -11.2,86.95 -33.7,109.04 -22.45,22.14 -57.79,33.19 -106,33.19l90.07 47.41 109.04 0c142.21,0 271.78,-39.41 388.67,-118.37 113.78,-69.41 246.45,-208.24 398.14,-416.54 123.27,-154.65 279.63,-397.62 469.27,-729.05l227.49 -383.4c303.35,-498.61 598.02,-861.5 884.02,-1088.76 286.01,-227.2 631.26,-381.87 1035.87,-463.94z"/>
  <path class="fil2" d="M8594.13 8282.26c0,-78.97 -16.59,-138.22 -49.77,-177.78 -33.19,-39.48 -78.23,-59.27 -135.11,-59.27 -85.35,0 -191.2,50.6 -317.64,151.72 -31.57,22.15 -62.36,46.66 -92.45,73.47 -30,26.9 -64,59.27 -101.92,97.19 -56.89,56.9 -115.34,128 -175.41,213.34 -91.63,139.13 -162.76,268.68 -213.33,388.76l-52.17 184.9c-12.59,47.39 -18.96,101.18 -18.96,161.17 0,69.56 15.04,122.52 45.05,158.82 30.07,36.37 71.92,54.53 125.63,54.53 60.07,0 135.93,-28.45 227.56,-85.35 91.71,-56.9 184.88,-135.85 279.7,-237.04 158.07,-176.96 277.35,-344.43 357.93,-502.53 80.61,-158 120.9,-298.66 120.9,-421.93zm137.49 33.19l161.19 -260.74 308.13 -14.23c-252.89,341.34 -460.67,651.13 -623.41,929.21 -162.83,278.15 -244.15,452 -244.15,521.48 0,28.43 9.49,52.15 28.45,71.13 18.96,18.94 45.77,28.45 80.59,28.45 123.25,0 300.23,-109.04 530.97,-327.13 230.67,-218.06 483.57,-516.75 758.55,-896.02l28.43 28.45c-135.94,186.52 -275.8,362.68 -419.58,528.61 -143.85,165.92 -266.28,296.29 -367.4,391.11 -230.74,218.07 -421.93,327.11 -573.65,327.11 -66.37,0 -126.38,-21.92 -180.15,-65.77 -47.41,-46.98 -71.12,-101.87 -71.12,-164.52 0,-50.1 11.13,-95.57 33.2,-136.32l37.92 -79.92 56.88 -89.33 -14.23 -14.06c-120.06,154.89 -256.74,282.87 -410.07,383.99 -153.26,101.19 -285.18,151.7 -395.87,151.7 -88.42,0 -159.55,-31.55 -213.33,-94.82 -53.69,-63.18 -80.59,-146.96 -80.59,-251.25 0,-110.59 40.31,-243.33 120.9,-398.22 80.58,-154.83 184.88,-300.23 312.89,-436.17 128,-135.86 266.29,-242.52 414.82,-320.01 148.6,-77.39 282.89,-116.15 402.97,-116.15 85.33,0 154.81,26.9 208.6,80.59 53.69,44.29 90.07,118.51 109.04,222.82z"/>
  <path class="fil2" d="M10741.52 7514.1l-340.24 559.57 596.46 0 -33.47 52.15 -606.99 0 -577.71 919.86 -109.18 224.75 -23.79 90.83 -14.22 86.08c0,57.34 12.67,94 37.93,109.93 22.15,22.36 63.26,33.48 123.25,33.48 154.9,0 367.42,-110.61 637.65,-331.86 270.23,-221.2 525.42,-507.28 765.63,-858.1l33.19 14.23c-255.99,369.78 -523.11,668.45 -801.19,896.02 -151.71,116.96 -282.08,201.48 -391.11,253.64 -109.04,52.13 -210.98,78.21 -305.8,78.21 -88.45,0 -161.19,-30.28 -218.07,-90.73 -59.99,-57.34 -90.08,-133.72 -90.08,-229.27 0,-41.36 7.12,-89.12 21.35,-143.26 14.21,-54.08 40.36,-111.41 78.3,-171.92l548.81 -882.55 -254.96 0.66 33.02 -52.15 254.76 -0.89 347.49 -544.31 288.96 -14.37z"/>
  <path class="fil2" d="M12958.1 6484l-1210.98 1789.07 -145.51 200 -261.49 345.65 23.71 8.73c208.44,-290.74 403.4,-505.64 584.97,-644.74 181.64,-139.06 349.79,-208.6 504.51,-208.6 78.98,0 145.27,23.04 198.97,68.95 53.64,46 80.54,102.3 80.54,168.83 0,95.11 -83.78,259.93 -251.29,494.46l-161.17 218.74 -146.96 223.46 -90.08 147.43c-37.94,82.44 -56.88,141.11 -56.88,175.93 0,34.9 11.84,60.21 35.55,76.07 23.7,15.87 52.89,23.78 87.7,23.78 126.36,0 311.27,-109.04 554.69,-327.11 120.07,-107.4 244.9,-235.42 374.52,-384.01 53.71,-60.01 113.78,-133.49 180.15,-220.46 66.37,-86.9 134.3,-177.78 203.84,-272.6l33.2 23.7c-287.64,401.42 -551.57,707.2 -791.72,917.36 -240.23,210.22 -439.36,315.26 -597.36,315.26 -82.14,0 -146.96,-25.24 -194.37,-75.86 -50.53,-47.39 -75.84,-113.78 -75.84,-199.11 0,-129.55 131.19,-371.34 393.48,-725.35l28.45 -42.68 203.86 -293.92c37.92,-72.67 56.88,-124.82 56.88,-156.45 0,-28.43 -11.11,-52.15 -33.19,-71.11 -18.96,-22.08 -44.29,-33.19 -75.86,-33.19 -186.5,0 -417.17,142.23 -692.16,426.67 -132.67,142.23 -263.77,304.23 -393.41,486.02 -129.55,181.77 -256.01,394.28 -379.26,637.63l-327.13 23.69 2000.55 -3114.79 339.06 -1.48z"/>
  <path class="fil2" d="M14268.84 7390.98c0,-37.92 15.04,-71.85 45.02,-101.92 30.09,-30 68.75,-48.15 116.17,-54.53 41.03,0 77.4,15.86 109.04,47.41 31.55,31.64 47.41,68.01 47.41,109.04 0,44.29 -15.86,82.23 -47.41,113.78 -37.92,28.45 -75.86,44.29 -113.78,47.41 -44.29,0 -80.59,-14.95 -109.04,-45.04 -28.45,-30 -44.22,-68.74 -47.41,-116.15zm-109.04 644.75l-256.01 375.71c-420.29,624.6 -630.53,981.19 -630.53,1069.94 0,25.4 11.11,44.45 33.19,57.11 18.97,19.05 39.55,28.52 61.63,28.52 126.46,0 314.52,-110.59 564.16,-331.87 110.68,-101.1 233.13,-227.56 367.4,-379.26 134.31,-151.7 263.13,-312.9 386.4,-483.56l37.92 28.45c-72.73,94.82 -148.58,191.26 -227.56,289.19 -63.25,79.03 -129.62,156.44 -199.11,232.3 -139.04,151.71 -268.6,279.7 -388.75,384.01 -243.35,208.6 -437.72,312.9 -583.12,312.9 -69.5,0 -127.2,-23.71 -173.04,-71.12 -45.79,-47.41 -68.74,-109.03 -68.74,-184.88 0,-37.94 17.4,-104.31 52.13,-199.13l71.12 -151.7 66.37 -99.55 564.17 -853.35 322.36 -23.71z"/>
  <rect class="fil3" width="17571.82" height="17571.82"/>
 </g>
</svg>
