<?xml version="1.0" encoding="UTF-8"?>
<!DOCTYPE svg PUBLIC "-//W3C//DTD SVG 1.1//EN" "http://www.w3.org/Graphics/SVG/1.1/DTD/svg11.dtd">
<!-- Creator: CorelDRAW -->
<svg xmlns="http://www.w3.org/2000/svg" xml:space="preserve" width="282.23mm" height="108.679mm" version="1.1" style="shape-rendering:geometricPrecision; text-rendering:geometricPrecision; image-rendering:optimizeQuality; fill-rule:evenodd; clip-rule:evenodd"
viewBox="0 0 28252.11 10879.05"
 xmlns:xlink="http://www.w3.org/1999/xlink"
 xmlns:xodm="http://www.corel.com/coreldraw/odm/2003">
 <defs>
  <style type="text/css">
   <![CDATA[
    .fil1 {fill:none}
    .fil0 {fill:#F2EBDB;fill-rule:nonzero}
   ]]>
  </style>
 </defs>
 <g id="Layer_x0020_1">
  <metadata id="CorelCorpID_0Corel-Layer"/>
  <path class="fil0" d="M7491.1 9085.54l0 251.9 81.42 0c48.02,0 83.2,-4.7 105.59,-14.08 22.35,-9.36 40.33,-24.02 53.9,-44 13.6,-19.91 20.37,-41.53 20.37,-64.73 0,-29.18 -9.56,-54.67 -28.64,-76.39 -19.06,-21.72 -45.31,-36.62 -78.69,-44.64 -22.35,-5.42 -61.29,-8.06 -116.81,-8.06l-37.15 0 0.01 -0.01zm0 -276.48l0 210.36 37.61 0c45.63,0 79.2,-4.24 100.7,-12.75 21.44,-8.47 38.46,-21.86 51,-40.19 12.53,-18.31 18.83,-38.64 18.83,-60.99 0,-30.01 -10.53,-53.64 -31.58,-70.77 -21,-17.12 -54.53,-25.67 -100.47,-25.67l-76.09 0 0 0.02zm-64.31 -64.31l129.53 0c52.09,0 92.13,6.13 120.12,18.55 27.97,12.36 50.08,31.32 66.31,56.91 16.23,25.65 24.34,54.08 24.34,85.3 0,29.22 -7.1,55.76 -21.32,79.74 -14.2,23.98 -35.09,43.44 -62.68,58.3 34.16,11.62 60.42,25.22 78.83,40.86 18.41,15.65 32.75,34.54 42.98,56.71 10.23,22.17 15.36,46.26 15.36,72.16 0,52.68 -19.28,97.3 -57.8,133.74 -38.6,36.52 -90.33,54.73 -155.2,54.73l-180.45 0 0 -656.97 -0.02 -0.03z"/>
  <polygon class="fil0" points="8081.36,8744.75 8156.89,8744.75 8325.03,9015.71 8490.48,8744.75 8566.39,8744.75 8358.29,9087.73 8358.29,9401.72 8293.52,9401.72 8293.52,9087.73 "/>
  <path class="fil0" d="M9752.89 8792.1c-48.6,0 -94.72,12.63 -138.26,37.97 -43.5,25.35 -77.52,59.51 -101.97,102.42 -24.44,42.86 -36.66,90.71 -36.66,143.48 0,78.03 27.06,143.97 81.19,197.78 54.12,53.74 119.35,80.65 195.7,80.65 51,0 98.21,-12.36 141.57,-37.08 43.4,-24.72 77.26,-58.56 101.56,-101.46 24.29,-42.94 36.44,-90.59 36.44,-143.1 0,-52.13 -12.16,-99.26 -36.44,-141.48 -24.29,-42.13 -58.52,-75.89 -102.66,-101.24 -44.16,-25.31 -90.96,-37.97 -140.47,-37.97l0 0.03zm-2.89 -63.89c99.52,0 182.79,33.22 249.82,99.61 67.07,66.41 100.59,148.13 100.59,245.17 0,96.21 -33.44,177.77 -100.33,244.76 -66.93,66.99 -148.45,100.47 -244.7,100.47 -97.43,0 -179.67,-33.3 -246.74,-100.05 -67.01,-66.67 -100.55,-147.36 -100.55,-242.04 0,-63.09 15.26,-121.64 45.8,-175.55 30.55,-53.86 72.18,-96.09 124.91,-126.59 52.76,-30.55 109.83,-45.8 171.21,-45.8l0.01 0.01z"/>
  <path class="fil0" d="M10484.28 8809.05l0 223.29 113.19 0.91c43.82,0 76.27,-4.16 97.3,-12.49 21.04,-8.33 37.43,-21.64 49.23,-39.97 11.74,-18.29 17.66,-38.78 17.66,-61.41 0,-22.04 -5.97,-42.05 -17.87,-60.06 -11.98,-18.03 -27.61,-30.86 -47.01,-38.62 -19.4,-7.78 -51.59,-11.62 -96.62,-11.62l-115.86 0 -0.02 -0.02zm-65.66 -64.31l130.87 0c72.92,0 122.37,2.99 148.25,8.97 39.02,8.95 70.73,28.09 95.14,57.47 24.44,29.36 36.62,65.46 36.62,108.44 0,35.77 -8.41,67.21 -25.22,94.36 -16.84,27.1 -40.84,47.61 -72.12,61.45 -31.28,13.88 -74.49,20.98 -129.53,21.26l236.24 305.04 -81.21 0 -236.28 -305.04 -37.12 0 0 305.04 -65.66 0 0 -656.99 0.02 -0.01z"/>
  <polygon class="fil0" points="11153.63,9401.74 11153.63,8744.77 11167.91,8744.77 11605.17,9248.35 11605.17,8744.77 11669.94,8744.77 11669.94,9401.74 11655.18,9401.74 11221.49,8904.23 11221.49,9401.74 "/>
  <polygon class="fil0" points="12013.22,8744.75 12389.73,8744.75 12389.73,8809.03 12078.86,8809.03 12078.86,9014.94 12387.06,9014.94 12387.06,9079.28 12078.86,9079.28 12078.86,9337.41 12387.06,9337.41 12387.06,9401.72 12013.22,9401.72 "/>
  <polygon class="fil0" points="12686.12,8744.75 12751.78,8744.75 12751.78,9338.35 13004.59,9338.35 13004.59,9401.72 12686.12,9401.72 "/>
  <polygon class="fil0" points="13239.76,8744.75 13315.3,8744.75 13483.41,9015.71 13648.88,8744.75 13724.81,8744.75 13516.66,9087.73 13516.66,9401.72 13451.93,9401.72 13451.93,9087.73 "/>
  <path class="fil0" d="M13947.95 9279.35l55.84 -33.48c39.29,72.36 84.72,108.52 136.19,108.52 22.04,0 42.76,-5.12 62.12,-15.44 19.34,-10.23 34.08,-24.02 44.22,-41.28 10.1,-17.28 15.16,-35.57 15.16,-54.95 0,-22 -7.44,-43.57 -22.31,-64.75 -20.51,-29.18 -58.04,-64.31 -112.55,-105.41 -54.81,-41.4 -88.88,-71.31 -102.28,-89.78 -23.22,-30.96 -34.86,-64.47 -34.86,-100.51 0,-28.6 6.85,-54.63 20.55,-78.17 13.7,-23.48 32.98,-42.03 57.84,-55.58 24.86,-13.56 51.87,-20.29 81.05,-20.29 30.96,0 59.92,7.64 86.9,22.95 26.94,15.36 55.44,43.57 85.5,84.64l-53.62 40.68c-24.68,-32.77 -45.76,-54.35 -63.18,-64.77 -17.42,-10.41 -36.4,-15.67 -56.95,-15.67 -26.48,0 -48.14,8.06 -64.99,24.16 -16.8,16.07 -25.22,35.91 -25.22,59.39 0,14.3 2.95,28.15 8.93,41.53 5.93,13.39 16.82,27.97 32.61,43.78 8.61,8.33 36.9,30.21 84.86,65.66 56.85,41.99 95.89,79.34 117.03,112.1 21.1,32.81 31.68,65.66 31.68,98.72 0,47.61 -18.07,89.02 -54.24,124.14 -36.16,35.17 -80.16,52.72 -131.97,52.72 -39.91,0 -76.09,-10.65 -108.54,-31.95 -32.45,-21.26 -62.4,-56.93 -89.78,-106.98l-0.02 0.01z"/>
  <path class="fil0" d="M15702.45 8866.68l-51.81 39.73c-28.56,-37.21 -62.9,-65.44 -102.93,-84.6 -40.09,-19.22 -84.09,-28.82 -132.01,-28.82 -52.4,0 -100.96,12.57 -145.6,37.73 -44.67,25.18 -79.24,58.93 -103.83,101.42 -24.58,42.41 -36.88,90.11 -36.88,143.14 0,80.14 27.51,146.94 82.41,200.57 54.97,53.6 124.24,80.37 207.9,80.37 92.03,0 168.98,-35.99 230.91,-108.07l51.81 39.29c-32.77,41.71 -73.64,73.91 -122.61,96.68 -48.94,22.79 -103.69,34.16 -164.14,34.16 -114.91,0 -205.56,-38.24 -271.99,-114.77 -55.68,-64.59 -83.51,-142.62 -83.51,-234.06 0,-96.13 33.72,-177.05 101.18,-242.71 67.44,-65.7 151.93,-98.48 253.4,-98.48 61.39,0 116.75,12.14 166.19,36.38 49.43,24.29 89.91,58.3 121.47,102.08l0 -0.03z"/>
  <path class="fil0" d="M16332.92 8792.1c-48.6,0 -94.72,12.63 -138.26,37.97 -43.52,25.35 -77.52,59.51 -101.99,102.42 -24.44,42.86 -36.66,90.71 -36.66,143.48 0,78.03 27.06,143.97 81.19,197.78 54.12,53.74 119.35,80.65 195.7,80.65 51,0 98.17,-12.36 141.61,-37.08 43.36,-24.72 77.24,-58.56 101.54,-101.46 24.29,-42.94 36.48,-90.59 36.48,-143.1 0,-52.13 -12.18,-99.26 -36.48,-141.48 -24.29,-42.13 -58.52,-75.89 -102.64,-101.24 -44.16,-25.31 -91,-37.97 -140.51,-37.97l0.02 0.03zm-2.89 -63.89c99.52,0 182.77,33.22 249.82,99.61 67.07,66.41 100.57,148.13 100.57,245.17 0,96.21 -33.44,177.77 -100.33,244.76 -66.93,66.99 -148.45,100.47 -244.74,100.47 -97.39,0 -179.67,-33.3 -246.7,-100.05 -66.99,-66.67 -100.53,-147.36 -100.53,-242.04 0,-63.09 15.26,-121.64 45.8,-175.55 30.55,-53.86 72.18,-96.09 124.91,-126.59 52.76,-30.55 109.83,-45.8 171.21,-45.8l0.01 0.01z"/>
  <path class="fil0" d="M16997.33 8744.75l65.66 0 0 396.62c0,47.03 0.91,76.37 2.71,87.99 3.21,25.89 10.81,47.57 22.75,64.99 11.9,17.46 30.23,31.99 54.95,43.76 24.68,11.78 49.59,17.66 74.59,17.66 21.72,0 42.54,-4.62 62.54,-13.84 19.91,-9.24 36.62,-22.04 50.03,-38.42 13.35,-16.39 23.2,-36.16 29.46,-59.41 4.44,-16.67 6.71,-50.92 6.71,-102.74l0 -396.62 65.6 0 0 396.62c0,58.69 -5.72,106.08 -17.2,142.25 -11.44,36.2 -34.36,67.68 -68.75,94.5 -34.4,26.76 -76.03,40.15 -124.85,40.15 -53,0 -98.43,-12.63 -136.23,-37.97 -37.79,-25.29 -63.13,-58.77 -75.89,-100.51 -8.06,-25.57 -12.08,-71.72 -12.08,-138.43l0 -396.62 0 0.04z"/>
  <polygon class="fil0" points="17711.78,8809.05 17711.78,8744.75 18071.76,8744.75 18071.76,8809.05 17925.3,8809.05 17925.3,9401.74 17858.28,9401.74 17858.28,8809.05 "/>
  <path class="fil0" d="M18351.61 8744.75l65.66 0 0 396.62c0,47.03 0.91,76.37 2.71,87.99 3.25,25.89 10.85,47.57 22.75,64.99 11.9,17.46 30.23,31.99 54.95,43.76 24.72,11.78 49.59,17.66 74.59,17.66 21.72,0 42.58,-4.62 62.54,-13.84 19.91,-9.24 36.64,-22.04 50.04,-38.42 13.39,-16.39 23.2,-36.16 29.5,-59.41 4.42,-16.67 6.69,-50.92 6.69,-102.74l0 -396.62 65.66 0 0 396.62c0,58.69 -5.74,106.08 -17.2,142.25 -11.44,36.2 -34.4,67.68 -68.79,94.5 -34.36,26.76 -75.99,40.15 -124.79,40.15 -53.02,0 -98.43,-12.63 -136.25,-37.97 -37.83,-25.29 -63.13,-58.77 -75.91,-100.51 -8.06,-25.57 -12.08,-71.72 -12.08,-138.43l0 -396.62 -0.07 0.04z"/>
  <path class="fil0" d="M19200.5 8809.05l0 223.29 113.19 0.91c43.82,0 76.23,-4.16 97.3,-12.49 21.04,-8.33 37.47,-21.64 49.21,-39.97 11.76,-18.29 17.66,-38.78 17.66,-61.41 0,-22.04 -5.93,-42.05 -17.87,-60.06 -11.94,-18.03 -27.61,-30.86 -46.97,-38.62 -19.38,-7.78 -51.61,-11.62 -96.64,-11.62l-115.86 0 -0.02 -0.02zm-65.66 -64.31l130.87 0c72.92,0 122.37,2.99 148.27,8.97 39,8.95 70.69,28.09 95.1,57.47 24.44,29.36 36.64,65.46 36.64,108.44 0,35.77 -8.41,67.21 -25.2,94.36 -16.84,27.1 -40.92,47.61 -72.14,61.45 -31.28,13.88 -74.49,20.98 -129.53,21.26l236.24 305.04 -81.23 0 -236.28 -305.04 -37.12 0 0 305.04 -65.66 0 0 -656.99 0.04 -0.01z"/>
  <polygon class="fil0" points="19869.85,8744.75 20246.35,8744.75 20246.35,8809.03 19935.48,8809.03 19935.48,9014.94 20243.68,9014.94 20243.68,9079.28 19935.48,9079.28 19935.48,9337.41 20243.68,9337.41 20243.68,9401.72 19869.85,9401.72 "/>
  <path class="fil0" d="M9813.8 1460.77l18.83 18.83c-464.03,170.75 -849.57,439.49 -1156.7,806.22 -307.24,366.77 -576.85,888.25 -808.73,1564.73l-318.67 1034.74c-359.01,1265.7 -752.52,2149.26 -1180.66,2650.42 131.66,-87.71 330.63,-291.51 597.16,-611.25 266.37,-319.74 559.52,-702.08 879.25,-1147.3l150.47 -206.87 573.64 -827.56 329.12 -470.21 498.42 -639.48c639.44,-745.98 1269.51,-1291.45 1890.17,-1636.27 620.65,-344.73 1263.18,-517.2 1927.8,-517.2l310.34 0c43.78,19.99 65.82,49.79 65.82,89.62l-56.44 85.22c-31.44,21.46 -72.14,32.03 -122.23,32.03l-150.45 0c-81.58,-24.08 -141.1,-40.27 -178.7,-48.34l-235.11 -36.26c-87.83,0 -247.73,88.13 -479.59,264.47 -231.98,157.5 -454.61,368.5 -667.65,633.01 -169.3,201.62 -341.79,462.88 -517.2,784.04 -175.59,321.2 -366.77,711.79 -573.64,1171.4l-225.73 481.78c-394.96,844.01 -783.73,1498.91 -1166.06,1964.98 -206.87,245.69 -404.38,436.14 -592.42,571.6 -188.1,135.46 -401.3,247.11 -639.48,335.31 783.59,0 1451.26,-177.05 2003.02,-531.33 551.6,-354.09 1068.83,-954.47 1551.66,-1800.83l75.22 47.03c-438.91,789.91 -942,1379.3 -1509.32,1767.93 -567.47,388.79 -1221.05,583.04 -1960.7,583.04l-169.3 0 -94.05 -9.4 -253.86 37.61 -169.3 18.79c-50.26,0 -90.96,-10.41 -122.27,-31 -18.83,-34.36 -28.21,-58.62 -28.21,-72.4l18.83 -41.14 75.22 -24.72 357.39 45.13 75.22 11.3c225.69,-100.78 429.35,-242.44 611.27,-425.09 162.94,-157.4 329.12,-374.69 498.42,-651.81 144.11,-214.11 344.69,-614.04 601.83,-1199.72l507.82 -1114.83c81.38,-182.51 162.98,-346.32 244.52,-491.19 56.44,-107 147.22,-258.19 272.73,-453.48 188.04,-289.77 379.21,-544.84 573.62,-765.26 395,-453.44 852.56,-806.08 1372.97,-1058.08l-18.79 -47.15c-689.72,138.39 -1332.29,452.7 -1927.78,943.16 -595.71,490.46 -1285.26,1301.7 -2068.88,2433.42 -639.48,918.07 -1167.73,1622.19 -1584.58,2112.66 -417.01,490.44 -735.15,786.1 -954.49,886.59l-47.01 -56.44c94.05,-118.26 194.23,-289.61 300.91,-513.95l169.3 -411.12 197.44 -570.11 364.57 -1260.74 207.01 -723.48 169.57 -470.19c106.68,-275.8 211.73,-501.5 315.31,-677.09 103.47,-175.49 233.79,-360.44 390.71,-554.85 282.27,-357.35 643.14,-686.47 1082.47,-987.42 -595.67,162.84 -1131.7,478.86 -1608.05,948.33 -476.52,469.64 -1116,1358.47 -1918.44,2666.78 -163.07,275.48 -325.87,538.37 -489,788.74 -162.94,250.37 -294.62,447.56 -394.96,591.57 -244.52,344.27 -451.38,597.72 -620.67,760.51 -351.02,312.99 -711.48,469.48 -1081.46,469.48 -206.87,0 -365.11,-43.48 -474.88,-130.06 -109.61,-86.66 -164.56,-192.17 -164.56,-316.21 0,-105.17 28.78,-192 85.95,-260.19 57.47,-68.2 134.01,-102.28 229.51,-102.28 70.08,0 130.64,25.16 181.44,75.22 51.17,50.24 79.82,112.87 86.13,188.08 0,100.33 -22.21,172.48 -66.85,216.29 -44.54,43.92 -114.63,65.84 -210.27,65.84l178.66 94.05 216.29 0c282.09,0 539.1,-78.17 770.96,-234.8 225.69,-137.68 488.86,-413.07 789.75,-826.25 244.52,-306.77 554.67,-788.72 930.85,-1446.15l451.25 -760.51c601.73,-989.05 1186.24,-1708.88 1753.54,-2159.67 567.33,-450.67 1252.17,-757.48 2054.75,-920.28l-0.02 0z"/>
  <path class="fil0" d="M13731.11 5278.77c0,-156.64 -32.9,-274.17 -98.72,-352.64 -65.84,-78.31 -155.18,-117.57 -268.01,-117.57 -169.3,0 -379.27,100.37 -630.07,300.95 -62.62,43.94 -123.7,92.56 -183.39,145.74 -59.51,53.35 -126.95,117.57 -202.17,192.79 -112.85,112.87 -228.79,253.9 -347.95,423.19 -181.76,275.98 -322.85,532.96 -423.17,771.14l-103.49 366.77c-24.98,94.01 -37.61,200.7 -37.61,319.7 0,137.98 29.83,243.03 89.36,315.03 59.65,72.14 142.66,108.16 249.2,108.16 119.15,0 269.63,-56.44 451.38,-169.3 181.92,-112.87 366.73,-269.48 554.81,-470.19 313.55,-351.02 550.16,-683.21 709.99,-996.83 159.89,-313.41 239.82,-592.42 239.82,-836.94l0 0.01zm272.72 65.84l319.74 -517.2 611.21 -28.23c-501.64,677.09 -913.79,1291.59 -1236.6,1843.19 -322.99,551.74 -484.3,896.59 -484.3,1034.41 0,56.4 18.83,103.45 56.44,141.1 37.61,37.57 90.79,56.44 159.85,56.44 244.48,0 595.54,-216.29 1053.23,-648.9 457.56,-432.55 959.22,-1025.02 1504.67,-1777.35l56.4 56.44c-269.65,369.98 -547.08,719.41 -832.28,1048.55 -285.34,329.12 -528.19,587.72 -728.78,775.81 -457.7,432.57 -836.94,648.86 -1137.89,648.86 -131.66,0 -250.69,-43.48 -357.35,-130.46 -94.05,-93.19 -141.08,-202.07 -141.08,-326.35 0,-99.38 22.07,-189.58 65.86,-270.41l75.22 -158.53 112.83 -177.19 -28.23 -27.89c-238.16,307.24 -509.27,561.11 -813.42,761.68 -304,200.72 -565.68,300.91 -785.25,300.91 -175.39,0 -316.49,-62.58 -423.17,-188.08 -106.5,-125.33 -159.85,-291.51 -159.85,-498.38 0,-219.37 79.96,-482.67 239.82,-789.91 159.83,-307.13 366.73,-595.54 620.65,-865.19 253.9,-269.5 528.21,-481.06 822.84,-634.77 294.76,-153.51 561.14,-230.4 799.33,-230.4 169.26,0 307.09,53.35 413.78,159.85 106.5,87.85 178.66,235.08 216.29,441.98l0.04 0.03z"/>
  <path class="fil0" d="M17990.68 3755.05l-674.9 1109.96 1183.14 0 -66.39 103.45 -1204.03 0 -1145.95 1824.64 -216.57 445.82 -47.19 180.18 -28.21 170.75c0,113.74 25.14,186.46 75.24,218.05 43.94,44.36 125.48,66.41 244.48,66.41 307.26,0 728.82,-219.41 1264.84,-658.28 536.03,-438.77 1042.22,-1006.25 1518.71,-1702.13l65.84 28.23c-507.78,733.49 -1037.65,1325.94 -1589.25,1777.35 -300.93,232 -559.54,399.66 -775.81,503.12 -216.29,103.41 -418.5,155.14 -606.58,155.14 -175.45,0 -319.74,-60.06 -432.57,-179.98 -118.99,-113.74 -178.68,-265.24 -178.68,-454.78 0,-82.04 14.12,-176.78 42.35,-284.17 28.19,-107.27 80.06,-221 155.32,-341.02l1088.62 -1750.63 -505.74 1.31 65.5 -103.45 505.34 -1.76 689.28 -1079.7 573.18 -28.51 0.03 0.01z"/>
  <path class="fil0" d="M22387.5 1711.74l-2402.11 3548.81 -288.64 396.72 -518.69 685.64 47.03 17.32c413.47,-576.71 800.18,-1002.99 1160.35,-1278.91 360.3,-275.84 693.84,-413.78 1000.75,-413.78 156.66,0 288.16,45.71 394.68,136.77 106.4,91.24 159.76,202.92 159.76,334.89 0,188.66 -166.19,515.6 -498.46,980.81l-319.7 433.9 -291.51 443.26 -178.68 292.44c-75.26,163.53 -112.83,279.91 -112.83,348.98 0,69.23 23.48,119.43 70.51,150.9 47.01,31.48 104.91,47.17 173.96,47.17 250.65,0 617.44,-216.29 1100.28,-648.86 238.18,-213.04 485.79,-466.98 742.9,-761.72 106.54,-119.03 225.69,-264.79 357.35,-437.31 131.66,-172.38 266.39,-352.64 404.34,-540.73l65.86 47.01c-570.57,796.26 -1094.1,1402.8 -1570.46,1819.68 -476.52,416.99 -871.52,625.35 -1184.93,625.35 -162.94,0 -291.51,-50.06 -385.56,-150.47 -100.23,-94.01 -150.43,-225.69 -150.43,-394.96 0,-256.97 260.23,-736.59 780.51,-1438.81l56.44 -84.66 404.38 -583.02c75.22,-144.15 112.83,-247.59 112.83,-310.34 0,-56.4 -22.04,-103.45 -65.84,-141.06 -37.61,-43.8 -87.85,-65.84 -150.47,-65.84 -369.94,0 -827.5,282.13 -1372.97,846.34 -263.16,282.13 -523.22,603.47 -780.37,964.07 -256.97,360.56 -507.82,782.09 -752.3,1264.81l-648.9 46.99 3968.3 -6178.52 672.56 -2.93 0.07 0.05z"/>
  <path class="fil0" d="M24987.49 3510.83c0,-75.22 29.83,-142.53 89.3,-202.17 59.69,-59.51 136.37,-95.51 230.44,-108.16 81.38,0 153.53,31.46 216.29,94.05 62.58,62.76 94.05,134.91 94.05,216.29 0,87.85 -31.46,163.11 -94.05,225.69 -75.22,56.44 -150.47,87.85 -225.69,94.05 -87.85,0 -159.85,-29.65 -216.29,-89.34 -56.44,-59.51 -87.71,-136.35 -94.05,-230.4l0 -0.01zm-216.29 1278.93l-507.82 745.26c-833.69,1238.96 -1250.73,1946.29 -1250.73,2122.34 0,50.38 22.04,88.17 65.84,113.29 37.63,37.79 78.45,56.57 122.25,56.57 250.85,0 623.88,-219.37 1119.07,-658.3 219.55,-200.55 462.44,-451.38 728.78,-752.3 266.41,-300.91 521.95,-620.67 766.47,-959.2l75.22 56.44c-144.27,188.08 -294.72,379.38 -451.38,573.64 -125.46,156.76 -257.11,310.32 -394.96,460.79 -275.8,300.93 -532.8,554.81 -771.12,761.72 -482.71,413.78 -868.26,620.67 -1156.68,620.67 -137.86,0 -252.32,-47.03 -343.24,-141.08 -90.83,-94.05 -136.35,-216.27 -136.35,-366.73 0,-75.26 34.52,-206.91 103.41,-395l141.08 -300.91 131.66 -197.46 1119.09 -1692.71 639.44 -47.03 0 -0.01z"/>
  <rect class="fil1" y="0" width="28252.11" height="10879.05"/>
 </g>
</svg>
